<svg id="Warstwa_2" data-name="Warstwa 2" xmlns="http://www.w3.org/2000/svg" viewBox="0 0 1101.59 1128.38"><defs><style>.cls-1{fill:red;}</style></defs><polyline class="cls-1" points="0 0 67.32 0 67.32 471.23 195.84 471.23 195.84 0 257.04 0 257.04 471.23 514.07 471.23 514.07 752.75 257.04 752.75 257.04 862.91 195.84 862.91 195.84 752.75 67.32 752.75 67.32 862.91 0 862.91 0 0"/><path class="cls-1" d="M519,910.27h67.32v165.24c12.24,36.72,110.16,36.72,128.52,0V910.27H776v171.36c-24.48,97.92-220.32,104-257,0Z" transform="translate(-519 -29)"/><path class="cls-1" d="M818.88,910.27v244.8H874V947h97.91c49,12.24,49,85.68,0,91.8H880.08l110.15,116.28h61.2l-85.68-85.68h24.48c85.68-6.12,79.56-146.88,0-159.12Z" transform="translate(-519 -29)"/><rect class="cls-1" x="581.39" y="881.27" width="42.84" height="244.8"/><path class="cls-1" d="M1198.31,910.27" transform="translate(-519 -29)"/><polyline class="cls-1" points="679.31 1126.07 679.31 881.27 869.03 881.27 869.03 917.99 722.15 917.99 722.15 991.43 856.79 991.43 856.79 1028.15 722.15 1028.15 722.15 1095.47 869.03 1095.47 869.03 1126.07 679.31 1126.07"/><polygon class="cls-1" points="911.87 881.27 911.87 1126.07 1101.59 1126.07 1101.59 1095.47 960.83 1095.47 960.83 881.27 911.87 881.27"/></svg>